<?xml version="1.0" encoding="utf-8"?>
<!-- Generator: Adobe Illustrator 26.0.1, SVG Export Plug-In . SVG Version: 6.00 Build 0)  -->
<svg version="1.1" id="Layer_1" xmlns="http://www.w3.org/2000/svg" xmlns:xlink="http://www.w3.org/1999/xlink" x="0px" y="0px"
     viewBox="0 0 252.5 205.8" style="enable-background:new 0 0 252.5 205.8;" xml:space="preserve">
<style type="text/css">
	.st0{fill:#FFFFFF;}
	.st1{fill:#FFFFFF;}
	.st2{fill:#FFFFFF;}
</style>
    <g>
	<g>
		<path class="st0" d="M94.4,111.2l3.8-12.5h3.8l-5.8,16.6h-3.6l-5.8-16.6h3.8L94.4,111.2z"/>
        <path class="st0" d="M109,115.6c-1.8,0-3.3-0.6-4.4-1.7c-1.1-1.1-1.7-2.6-1.7-4.4v-0.3c0-1.2,0.2-2.3,0.7-3.3c0.5-1,1.2-1.7,2-2.3
			c0.9-0.5,1.9-0.8,3-0.8c1.7,0,3,0.5,4,1.6c1,1.1,1.5,2.6,1.5,4.5v1.3h-7.9c0.1,0.8,0.4,1.5,1,1.9c0.5,0.5,1.2,0.7,2,0.7
			c1.3,0,2.3-0.5,3-1.4l1.6,1.8c-0.5,0.7-1.2,1.2-2,1.6C111,115.4,110,115.6,109,115.6z M108.6,105.4c-0.7,0-1.2,0.2-1.6,0.7
			c-0.4,0.4-0.7,1.1-0.8,1.9h4.6v-0.3c0-0.7-0.2-1.3-0.6-1.7S109.3,105.4,108.6,105.4z"/>
        <path class="st0" d="M119,103l0.1,1.4c0.9-1.1,2.1-1.7,3.5-1.7c1.3,0,2.3,0.4,2.9,1.2c0.6,0.8,1,1.9,1,3.4v8h-3.3v-7.9
			c0-0.7-0.2-1.2-0.5-1.5c-0.3-0.3-0.8-0.5-1.5-0.5c-0.9,0-1.6,0.4-2.1,1.2v8.7h-3.3V103H119z"/>
        <path class="st0" d="M136.4,114.1c-0.8,1-1.9,1.5-3.4,1.5c-1.3,0-2.3-0.4-3-1.1c-0.7-0.8-1.1-1.9-1.1-3.3V103h3.3v8
			c0,1.3,0.6,1.9,1.8,1.9c1.1,0,1.9-0.4,2.3-1.2V103h3.3v12.3h-3.1L136.4,114.1z"/>
        <path class="st0" d="M147.8,115.6c-1.8,0-3.3-0.6-4.4-1.7c-1.1-1.1-1.7-2.6-1.7-4.4v-0.3c0-1.2,0.2-2.3,0.7-3.3
			c0.5-1,1.2-1.7,2-2.3c0.9-0.5,1.9-0.8,3-0.8c1.7,0,3,0.5,4,1.6c1,1.1,1.5,2.6,1.5,4.5v1.3H145c0.1,0.8,0.4,1.5,1,1.9
			c0.5,0.5,1.2,0.7,2,0.7c1.3,0,2.3-0.5,3-1.4l1.6,1.8c-0.5,0.7-1.2,1.2-2,1.6C149.8,115.4,148.8,115.6,147.8,115.6z M147.4,105.4
			c-0.7,0-1.2,0.2-1.6,0.7c-0.4,0.4-0.7,1.1-0.8,1.9h4.6v-0.3c0-0.7-0.2-1.3-0.6-1.7C148.7,105.6,148.1,105.4,147.4,105.4z"/>
        <path class="st0" d="M170.2,111.9h-6l-1.1,3.4h-3.6l6.2-16.6h3.2l6.2,16.6h-3.6L170.2,111.9z M165.1,109.2h4.2l-2.1-6.2
			L165.1,109.2z"/>
        <path class="st0" d="M186.7,110.9l1.6-7.9h3.2l-3.2,12.3h-2.8l-2.3-7.8l-2.3,7.8h-2.8L175,103h3.2l1.6,7.9l2.3-7.9h2.4
			L186.7,110.9z"/>
        <path class="st0" d="M200.3,115.4c-0.2-0.3-0.3-0.7-0.3-1.1c-0.8,0.9-1.8,1.3-3.1,1.3c-1.2,0-2.2-0.3-3-1.1
			c-0.8-0.7-1.2-1.6-1.2-2.6c0-1.3,0.5-2.3,1.5-3c1-0.7,2.4-1.1,4.2-1.1h1.5v-0.7c0-0.6-0.1-1-0.4-1.4c-0.3-0.3-0.8-0.5-1.4-0.5
			c-0.6,0-1,0.1-1.3,0.4c-0.3,0.3-0.5,0.6-0.5,1.1h-3.3c0-0.7,0.2-1.4,0.7-2c0.4-0.6,1.1-1.1,1.9-1.4c0.8-0.3,1.7-0.5,2.7-0.5
			c1.5,0,2.7,0.4,3.6,1.1c0.9,0.8,1.3,1.8,1.3,3.2v5.4c0,1.2,0.2,2.1,0.5,2.7v0.2H200.3z M197.5,113.1c0.5,0,0.9-0.1,1.3-0.3
			c0.4-0.2,0.7-0.5,0.9-0.9v-2.1h-1.2c-1.7,0-2.5,0.6-2.6,1.7l0,0.2c0,0.4,0.1,0.7,0.4,1S197,113.1,197.5,113.1z"/>
        <path class="st0" d="M212.6,106.1c-0.4-0.1-0.8-0.1-1.2-0.1c-1.2,0-2.1,0.4-2.5,1.3v8.1h-3.3V103h3.1l0.1,1.5
			c0.7-1.1,1.6-1.7,2.8-1.7c0.4,0,0.7,0,1,0.1L212.6,106.1z"/>
        <path class="st0" d="M213.7,109.1c0-1.9,0.4-3.5,1.3-4.6c0.9-1.1,2-1.7,3.5-1.7c1.2,0,2.2,0.4,3,1.3v-6.3h3.3v17.5h-3l-0.2-1.3
			c-0.8,1-1.9,1.5-3.2,1.5c-1.5,0-2.6-0.6-3.5-1.7C214.1,112.7,213.7,111.1,213.7,109.1z M217,109.3c0,1.2,0.2,2,0.6,2.7
			c0.4,0.6,1,0.9,1.8,0.9c1,0,1.7-0.4,2.2-1.3v-4.9c-0.4-0.9-1.1-1.3-2.1-1.3C217.8,105.5,217,106.8,217,109.3z"/>
        <path class="st0" d="M234,111.9c0-0.4-0.2-0.7-0.6-1c-0.4-0.2-1-0.4-1.9-0.6c-2.9-0.6-4.4-1.9-4.4-3.7c0-1.1,0.5-2,1.4-2.7
			c0.9-0.7,2.1-1.1,3.6-1.1c1.6,0,2.8,0.4,3.8,1.1c0.9,0.7,1.4,1.7,1.4,2.9h-3.3c0-0.5-0.2-0.9-0.5-1.2s-0.8-0.5-1.4-0.5
			c-0.6,0-1,0.1-1.3,0.4c-0.3,0.3-0.5,0.6-0.5,1c0,0.4,0.2,0.7,0.5,0.9c0.3,0.2,0.9,0.4,1.8,0.6c0.8,0.2,1.5,0.3,2.1,0.6
			c1.7,0.6,2.6,1.7,2.6,3.3c0,1.1-0.5,2-1.4,2.7c-1,0.7-2.2,1-3.7,1c-1,0-2-0.2-2.8-0.6c-0.8-0.4-1.4-0.9-1.9-1.5
			c-0.5-0.6-0.7-1.3-0.7-2.1h3.1c0,0.6,0.2,1,0.7,1.3c0.4,0.3,0.9,0.5,1.6,0.5c0.6,0,1.1-0.1,1.4-0.4
			C233.9,112.6,234,112.3,234,111.9z"/>
	</g>
        <g>
		<path class="st0" d="M94.4,81.2h-2.7v6.1h-3.4V70.7h6.2c2,0,3.5,0.4,4.5,1.3c1.1,0.9,1.6,2.1,1.6,3.7c0,1.1-0.2,2.1-0.7,2.8
			c-0.5,0.8-1.2,1.4-2.2,1.8l3.6,6.8v0.2h-3.7L94.4,81.2z M91.7,78.5h2.8c0.9,0,1.5-0.2,2-0.7c0.5-0.4,0.7-1,0.7-1.8
			c0-0.8-0.2-1.4-0.7-1.8c-0.4-0.4-1.1-0.7-2-0.7h-2.8V78.5z"/>
            <path class="st0" d="M108.6,87.5c-1.8,0-3.3-0.6-4.4-1.7c-1.1-1.1-1.7-2.6-1.7-4.4v-0.3c0-1.2,0.2-2.3,0.7-3.3
			c0.5-1,1.2-1.7,2-2.3c0.9-0.5,1.9-0.8,3-0.8c1.7,0,3,0.5,4,1.6c1,1.1,1.5,2.6,1.5,4.5v1.3h-7.9c0.1,0.8,0.4,1.5,1,1.9
			c0.5,0.5,1.2,0.7,2,0.7c1.3,0,2.3-0.5,3-1.4l1.6,1.8c-0.5,0.7-1.2,1.2-2,1.6C110.6,87.3,109.7,87.5,108.6,87.5z M108.3,77.4
			c-0.7,0-1.2,0.2-1.6,0.7c-0.4,0.4-0.7,1.1-0.8,1.9h4.6v-0.3c0-0.7-0.2-1.3-0.6-1.7C109.5,77.6,109,77.4,108.3,77.4z"/>
            <path class="st0" d="M118.7,75l0.1,1.4c0.9-1.1,2.1-1.6,3.5-1.6c1.6,0,2.7,0.6,3.3,1.9c0.9-1.3,2.1-1.9,3.7-1.9
			c1.3,0,2.3,0.4,3,1.2c0.7,0.8,1,2,1,3.5v7.9H130v-7.9c0-0.7-0.1-1.2-0.4-1.5c-0.3-0.3-0.8-0.5-1.4-0.5c-1,0-1.7,0.5-2.1,1.4l0,8.5
			h-3.3v-7.9c0-0.7-0.1-1.2-0.4-1.6c-0.3-0.3-0.8-0.5-1.4-0.5c-0.9,0-1.6,0.4-2,1.2v8.7h-3.3V75H118.7z"/>
            <path class="st0" d="M143,87.3c-0.2-0.3-0.3-0.7-0.3-1.1c-0.8,0.9-1.8,1.3-3.1,1.3c-1.2,0-2.2-0.3-3-1.1c-0.8-0.7-1.2-1.6-1.2-2.6
			c0-1.3,0.5-2.3,1.5-3c1-0.7,2.4-1.1,4.2-1.1h1.5v-0.7c0-0.6-0.1-1-0.4-1.4c-0.3-0.3-0.8-0.5-1.4-0.5c-0.6,0-1,0.1-1.3,0.4
			c-0.3,0.3-0.5,0.6-0.5,1.1h-3.3c0-0.7,0.2-1.4,0.7-2c0.4-0.6,1.1-1.1,1.9-1.4c0.8-0.3,1.7-0.5,2.7-0.5c1.5,0,2.7,0.4,3.6,1.1
			c0.9,0.8,1.3,1.8,1.3,3.2v5.4c0,1.2,0.2,2.1,0.5,2.7v0.2H143z M140.3,85c0.5,0,0.9-0.1,1.3-0.3c0.4-0.2,0.7-0.5,0.9-0.9v-2.1h-1.2
			c-1.7,0-2.5,0.6-2.6,1.7l0,0.2c0,0.4,0.1,0.7,0.4,1C139.4,84.9,139.8,85,140.3,85z"/>
            <path class="st0" d="M155.3,78.1c-0.4-0.1-0.8-0.1-1.2-0.1c-1.2,0-2.1,0.4-2.5,1.3v8.1h-3.3V75h3.1l0.1,1.5
			c0.7-1.1,1.6-1.7,2.8-1.7c0.4,0,0.7,0,1,0.1L155.3,78.1z"/>
            <path class="st0" d="M161.4,82.4l-1.2,1.2v3.8h-3.3V69.8h3.3v9.7l0.6-0.8L164,75h4l-4.5,5.1l4.9,7.2h-3.8L161.4,82.4z"/>
            <path class="st0" d="M176.5,87.3c-0.2-0.3-0.3-0.7-0.3-1.1c-0.8,0.9-1.8,1.3-3.1,1.3c-1.2,0-2.2-0.3-3-1.1
			c-0.8-0.7-1.2-1.6-1.2-2.6c0-1.3,0.5-2.3,1.5-3c1-0.7,2.4-1.1,4.2-1.1h1.5v-0.7c0-0.6-0.1-1-0.4-1.4c-0.3-0.3-0.8-0.5-1.4-0.5
			c-0.6,0-1,0.1-1.3,0.4c-0.3,0.3-0.5,0.6-0.5,1.1h-3.3c0-0.7,0.2-1.4,0.7-2c0.4-0.6,1.1-1.1,1.9-1.4c0.8-0.3,1.7-0.5,2.7-0.5
			c1.5,0,2.7,0.4,3.6,1.1c0.9,0.8,1.3,1.8,1.3,3.2v5.4c0,1.2,0.2,2.1,0.5,2.7v0.2H176.5z M173.8,85c0.5,0,0.9-0.1,1.3-0.3
			c0.4-0.2,0.7-0.5,0.9-0.9v-2.1h-1.2c-1.7,0-2.5,0.6-2.6,1.7l0,0.2c0,0.4,0.1,0.7,0.4,1S173.3,85,173.8,85z"/>
            <path class="st0" d="M193,81.2c0,2-0.4,3.5-1.3,4.6c-0.8,1.1-2,1.7-3.5,1.7c-1.3,0-2.4-0.5-3.2-1.5l-0.1,1.3h-3V69.8h3.3v6.3
			c0.8-0.9,1.8-1.3,3-1.3c1.5,0,2.7,0.6,3.5,1.7c0.9,1.1,1.3,2.7,1.3,4.7V81.2z M189.7,81c0-1.2-0.2-2.2-0.6-2.7
			c-0.4-0.6-1-0.9-1.8-0.9c-1.1,0-1.8,0.4-2.2,1.3v4.9c0.4,0.9,1.1,1.3,2.2,1.3c1.1,0,1.8-0.5,2.1-1.6C189.7,82.8,189.7,82,189.7,81
			z"/>
            <path class="st0" d="M198.6,87.3h-3.3V69.8h3.3V87.3z"/>
            <path class="st0" d="M207,87.5c-1.8,0-3.3-0.6-4.4-1.7c-1.1-1.1-1.7-2.6-1.7-4.4v-0.3c0-1.2,0.2-2.3,0.7-3.3c0.5-1,1.2-1.7,2-2.3
			c0.9-0.5,1.9-0.8,3-0.8c1.7,0,3,0.5,4,1.6c1,1.1,1.5,2.6,1.5,4.5v1.3h-7.9c0.1,0.8,0.4,1.5,1,1.9s1.2,0.7,2,0.7
			c1.3,0,2.3-0.5,3-1.4l1.6,1.8c-0.5,0.7-1.2,1.2-2,1.6C208.9,87.3,208,87.5,207,87.5z M206.6,77.4c-0.7,0-1.2,0.2-1.6,0.7
			c-0.4,0.4-0.7,1.1-0.8,1.9h4.6v-0.3c0-0.7-0.2-1.3-0.6-1.7C207.8,77.6,207.3,77.4,206.6,77.4z"/>
	</g>
        <g>
		<path class="st1" d="M102.8,49.2v-5.6h-2.7v5.6c0,3,2.4,5.4,5.4,5.4v-2.7C104,51.9,102.8,50.7,102.8,49.2z"/>
            <path class="st1" d="M114,43.7v0.8c-0.7-0.5-1.6-0.9-2.6-0.9c0,0,0,0,0,0c0,0,0,0,0,0c-1.4,0-2.8,0.6-3.8,1.6
			c-1,1-1.6,2.4-1.6,3.9v0.2c0,3,2.3,5.4,5.3,5.4c1,0,1.9-0.3,2.6-0.7v6.4h2.6h0.1v-8.1V52v-4v-1.6v-2.7L114,43.7z M111.4,52
			L111.4,52C111.4,52,111.4,52,111.4,52C111.4,52,111.4,52,111.4,52L111.4,52c-1.5,0-2.6-1.2-2.6-2.7v-0.2c0-0.7,0.2-1.4,0.8-1.9
			c0.5-0.5,1.2-0.9,1.9-0.9v0c0,0,0,0,0,0c0,0,0,0,0,0v0c0.7,0,1.4,0.4,1.9,0.9c0.5,0.5,0.8,1.2,0.8,1.9v0.2
			C114,50.8,112.9,52,111.4,52z"/>
            <path class="st1" d="M101.5,41.7c0.9,0,1.7-0.7,1.7-1.7c0-0.9-0.8-1.7-1.7-1.7c-0.9,0-1.7,0.7-1.7,1.7
			C99.8,40.9,100.6,41.7,101.5,41.7z"/>
            <path class="st1" d="M142.5,48.4l-1.8-0.5c-0.6-0.2-1.1-0.5-1.1-1c0.1-0.8,0.7-1,1.4-1c0.4,0,0.9,0.2,1.1,0.5l2.4-0.8l0.1-0.1
			c-0.7-1.3-2.1-1.8-3.6-1.9c-2.1-0.1-4,1.2-4.1,2.9c-0.1,1.3,0.1,2.5,2.8,3.5l1.4,0.5c0.8,0.2,1.2,0.5,1.1,1.1c0,0.6-0.7,1-1.5,1
			c-0.8,0-1.4-0.4-1.7-0.9l-2.5,0.8c0.6,1.4,2.2,2.2,3.8,2.3c2.2,0.1,4.4-0.8,4.6-3C145.1,50.9,144.9,49.2,142.5,48.4z"/>
            <path class="st1" d="M122.9,43.6c-2.7,0-5.2,2.2-5.2,5.6c0,3.6,2.5,5.6,5.4,5.6c1.6,0,2.8-0.6,3.7-1.4l-1.8-1.8
			c-0.4,0.4-1,0.7-1.9,0.7c-1.4,0-2.6-0.8-2.7-2.4h7.5c0,0,0-0.4,0-0.8C128.1,45.6,126.2,43.6,122.9,43.6z M120.6,47.9
			c0.1-1,0.9-2.1,2.4-2.1c1.6,0,2.3,1,2.4,2.1H120.6z"/>
            <path class="st1" d="M133.1,41.2"/>
            <path class="st1" d="M133.1,49.2V46h2.7v-2.3h-2.7v-3.8h-2.7v3.8h-1.8V46h1.8v3.3c0,3,2.4,5.4,5.4,5.4v-2.7
			C134.3,51.9,133.1,50.7,133.1,49.2z"/>
            <path class="st1" d="M86.8,44l2.7,0c0-1.5,1.2-2.7,2.7-2.7h0.6v7.9c0,3,2.4,5.4,5.4,5.4v-2.7c-1.5,0-2.7-1.2-2.7-2.7v-7.9h3.3
			v-2.7h-6.6C89.1,38.6,86.8,41.1,86.8,44z"/>
	</g>
        <linearGradient id="SVGID_1_" gradientUnits="userSpaceOnUse" x1="18.1006" y1="86.0144" x2="85.3259" y2="86.0144">
		<stop  offset="0" style="stop-color:#945A30"/>
            <stop  offset="0.2071" style="stop-color:#C38D5F"/>
            <stop  offset="0.3532" style="stop-color:#E9B785"/>
            <stop  offset="0.502" style="stop-color:#CF9A64"/>
            <stop  offset="0.6567" style="stop-color:#BB8348"/>
            <stop  offset="1" style="stop-color:#9C5830"/>
	</linearGradient>
        <path class="st2" d="M83.8,115.1c-6.1,4.8-12.2,9.5-18.4,14.2c-6.1,4.7-12.3,9.3-18.5,14l-2.7,2l1-3.3l6.9-22.2l3.5-11.1l3.5-11.1
		l0.6,1.7L40.9,85.8L22.1,72.2l-3.9-2.8l4.8,0l23.2,0.2l23.2,0.3l-1,0.8c2.5-7.3,5-14.6,7.6-21.9c2.5-7.3,5.1-14.6,7.8-21.9
		c-2.1,7.4-4.3,14.9-6.6,22.3c-2.2,7.4-4.5,14.8-6.8,22.2L70.3,72l-0.8,0l-23.2,0.3L23,72.4l0.9-2.8l18.8,13.6L61.5,97l0.9,0.7
		l-0.4,1.1l-3.7,11l-3.7,11l-7.4,22l-1.7-1.2c6.3-4.4,12.7-8.9,19-13.3C71,123.8,77.4,119.4,83.8,115.1z"/>
</g>
    <g>
	<path class="st0" d="M88.6,157.1v-12.3h4.3c1.5,0,2.6,0.3,3.4,0.9c0.8,0.6,1.2,1.4,1.2,2.5c0,0.6-0.2,1.1-0.5,1.6s-0.7,0.8-1.3,1
		c0.6,0.2,1.1,0.5,1.5,1c0.4,0.5,0.5,1.1,0.5,1.8c0,1.2-0.4,2.1-1.1,2.7c-0.8,0.6-1.8,0.9-3.2,0.9H88.6z M91.1,149.9H93
		c1.3,0,1.9-0.5,1.9-1.5c0-0.6-0.2-1-0.5-1.2c-0.3-0.2-0.8-0.4-1.5-0.4h-1.8V149.9z M91.1,151.7v3.3h2.2c0.6,0,1.1-0.1,1.4-0.4
		c0.3-0.3,0.5-0.7,0.5-1.2c0-1.1-0.6-1.7-1.8-1.7H91.1z"/>
        <path class="st0" d="M103.7,157.3c-1.3,0-2.4-0.4-3.3-1.2s-1.3-1.9-1.3-3.3v-0.2c0-0.9,0.2-1.7,0.5-2.5c0.4-0.7,0.9-1.3,1.5-1.7
		c0.7-0.4,1.4-0.6,2.2-0.6c1.3,0,2.2,0.4,3,1.2s1.1,1.9,1.1,3.4v1h-5.8c0.1,0.6,0.3,1.1,0.7,1.4c0.4,0.4,0.9,0.5,1.5,0.5
		c0.9,0,1.7-0.3,2.2-1l1.2,1.3c-0.4,0.5-0.9,0.9-1.5,1.2C105.2,157.1,104.5,157.3,103.7,157.3z M103.4,149.7c-0.5,0-0.9,0.2-1.2,0.5
		c-0.3,0.3-0.5,0.8-0.6,1.4h3.4v-0.2c0-0.5-0.2-1-0.4-1.3C104.3,149.9,103.9,149.7,103.4,149.7z"/>
        <path class="st0" d="M113.8,154.6c0-0.3-0.1-0.5-0.4-0.7c-0.3-0.2-0.8-0.3-1.4-0.5c-2.2-0.5-3.3-1.4-3.3-2.8c0-0.8,0.3-1.5,1-2
		c0.7-0.5,1.6-0.8,2.6-0.8c1.2,0,2.1,0.3,2.8,0.8c0.7,0.5,1,1.3,1,2.1h-2.4c0-0.3-0.1-0.6-0.3-0.9c-0.2-0.2-0.6-0.3-1.1-0.3
		c-0.4,0-0.7,0.1-1,0.3c-0.2,0.2-0.3,0.4-0.3,0.7c0,0.3,0.1,0.5,0.4,0.7c0.3,0.2,0.7,0.3,1.3,0.4c0.6,0.1,1.1,0.3,1.5,0.4
		c1.3,0.5,1.9,1.3,1.9,2.5c0,0.8-0.4,1.5-1.1,2c-0.7,0.5-1.6,0.8-2.8,0.8c-0.8,0-1.4-0.1-2-0.4s-1.1-0.6-1.4-1.1
		c-0.3-0.5-0.5-1-0.5-1.5h2.3c0,0.4,0.2,0.8,0.5,1c0.3,0.2,0.7,0.3,1.2,0.3c0.5,0,0.8-0.1,1.1-0.3
		C113.7,155.1,113.8,154.9,113.8,154.6z"/>
        <path class="st0" d="M120.7,145.7v2.3h1.6v1.8h-1.6v4.6c0,0.3,0.1,0.6,0.2,0.7s0.4,0.2,0.7,0.2c0.3,0,0.5,0,0.7-0.1v1.9
		c-0.5,0.1-1,0.2-1.5,0.2c-1.7,0-2.6-0.9-2.6-2.6v-4.9h-1.3v-1.8h1.3v-2.3H120.7z"/>
        <path class="st0" d="M131.4,144.8l3.2,8.9l3.1-8.9h3.3v12.3h-2.5v-3.4l0.3-5.8l-3.3,9.2h-1.7l-3.3-9.2l0.3,5.8v3.4h-2.5v-12.3
		H131.4z"/>
        <path class="st0" d="M148.6,156.2c-0.6,0.7-1.4,1.1-2.5,1.1c-1,0-1.7-0.3-2.2-0.8c-0.5-0.6-0.8-1.4-0.8-2.5v-6h2.4v5.9
		c0,1,0.4,1.4,1.3,1.4c0.8,0,1.4-0.3,1.7-0.9v-6.5h2.5v9.2h-2.3L148.6,156.2z"/>
        <path class="st0" d="M157.8,154.6c0-0.3-0.1-0.5-0.4-0.7c-0.3-0.2-0.8-0.3-1.4-0.5c-2.2-0.5-3.3-1.4-3.3-2.8c0-0.8,0.3-1.5,1-2
		c0.7-0.5,1.6-0.8,2.6-0.8c1.2,0,2.1,0.3,2.8,0.8c0.7,0.5,1,1.3,1,2.1h-2.4c0-0.3-0.1-0.6-0.3-0.9c-0.2-0.2-0.6-0.3-1.1-0.3
		c-0.4,0-0.7,0.1-1,0.3c-0.2,0.2-0.3,0.4-0.3,0.7c0,0.3,0.1,0.5,0.4,0.7c0.3,0.2,0.7,0.3,1.3,0.4c0.6,0.1,1.1,0.3,1.5,0.4
		c1.3,0.5,1.9,1.3,1.9,2.5c0,0.8-0.4,1.5-1.1,2c-0.7,0.5-1.6,0.8-2.8,0.8c-0.8,0-1.4-0.1-2-0.4s-1.1-0.6-1.4-1.1
		c-0.3-0.5-0.5-1-0.5-1.5h2.3c0,0.4,0.2,0.8,0.5,1c0.3,0.2,0.7,0.3,1.2,0.3c0.5,0,0.8-0.1,1.1-0.3
		C157.7,155.1,157.8,154.9,157.8,154.6z"/>
        <path class="st0" d="M166,157.3c-1.3,0-2.4-0.4-3.3-1.2s-1.3-1.9-1.3-3.3v-0.2c0-0.9,0.2-1.7,0.5-2.5c0.4-0.7,0.9-1.3,1.5-1.7
		c0.7-0.4,1.4-0.6,2.2-0.6c1.3,0,2.2,0.4,3,1.2s1.1,1.9,1.1,3.4v1h-5.8c0.1,0.6,0.3,1.1,0.7,1.4c0.4,0.4,0.9,0.5,1.5,0.5
		c0.9,0,1.7-0.3,2.2-1l1.2,1.3c-0.4,0.5-0.9,0.9-1.5,1.2C167.4,157.1,166.7,157.3,166,157.3z M165.7,149.7c-0.5,0-0.9,0.2-1.2,0.5
		c-0.3,0.3-0.5,0.8-0.6,1.4h3.4v-0.2c0-0.5-0.2-1-0.4-1.3C166.6,149.9,166.2,149.7,165.7,149.7z"/>
        <path class="st0" d="M176.6,156.2c-0.6,0.7-1.4,1.1-2.5,1.1c-1,0-1.7-0.3-2.2-0.8c-0.5-0.6-0.8-1.4-0.8-2.5v-6h2.4v5.9
		c0,1,0.4,1.4,1.3,1.4c0.8,0,1.4-0.3,1.7-0.9v-6.5h2.5v9.2h-2.3L176.6,156.2z"/>
        <path class="st0" d="M183.1,147.9l0.1,1c0.6-0.8,1.5-1.2,2.6-1.2c1.2,0,2,0.5,2.4,1.4c0.6-0.9,1.6-1.4,2.8-1.4c1,0,1.7,0.3,2.2,0.9
		c0.5,0.6,0.7,1.4,0.7,2.6v5.8h-2.5v-5.8c0-0.5-0.1-0.9-0.3-1.1c-0.2-0.2-0.6-0.4-1.1-0.4c-0.7,0-1.2,0.3-1.5,1l0,6.3h-2.4v-5.8
		c0-0.5-0.1-0.9-0.3-1.2s-0.6-0.4-1.1-0.4c-0.7,0-1.2,0.3-1.5,0.9v6.5h-2.4v-9.2H183.1z"/>
</g>
    <g>
	<path class="st0" d="M98.6,178.9h-2.5l-4.9-8.1v8.1h-2.5v-12.3h2.5l5,8.1v-8.1h2.5V178.9z"/>
        <path class="st0" d="M104.9,179c-1.3,0-2.4-0.4-3.3-1.2s-1.3-1.9-1.3-3.3v-0.2c0-0.9,0.2-1.7,0.5-2.5c0.4-0.7,0.9-1.3,1.5-1.7
		c0.7-0.4,1.4-0.6,2.2-0.6c1.3,0,2.2,0.4,3,1.2s1.1,1.9,1.1,3.4v1h-5.8c0.1,0.6,0.3,1.1,0.7,1.4c0.4,0.4,0.9,0.5,1.5,0.5
		c0.9,0,1.7-0.3,2.2-1l1.2,1.3c-0.4,0.5-0.9,0.9-1.5,1.2C106.3,178.9,105.6,179,104.9,179z M104.6,171.5c-0.5,0-0.9,0.2-1.2,0.5
		c-0.3,0.3-0.5,0.8-0.6,1.4h3.4v-0.2c0-0.5-0.2-1-0.4-1.3C105.5,171.7,105.1,171.5,104.6,171.5z"/>
        <path class="st0" d="M113,167.5v2.3h1.6v1.8H113v4.6c0,0.3,0.1,0.6,0.2,0.7s0.4,0.2,0.7,0.2c0.3,0,0.5,0,0.7-0.1v1.9
		c-0.5,0.1-1,0.2-1.5,0.2c-1.7,0-2.6-0.9-2.6-2.6v-4.9h-1.3v-1.8h1.3v-2.3H113z"/>
        <path class="st0" d="M118.3,170.7c0.6-0.8,1.5-1.2,2.4-1.2c2,0,3,1.2,3,3.5v5.9h-2.4v-5.8c0-0.5-0.1-0.9-0.3-1.2
		c-0.2-0.3-0.6-0.4-1.1-0.4c-0.7,0-1.2,0.3-1.6,0.8v6.5h-2.4v-13h2.4V170.7z"/>
        <path class="st0" d="M129.8,179c-1.3,0-2.4-0.4-3.3-1.2s-1.3-1.9-1.3-3.3v-0.2c0-0.9,0.2-1.7,0.5-2.5c0.4-0.7,0.9-1.3,1.5-1.7
		c0.7-0.4,1.4-0.6,2.2-0.6c1.3,0,2.2,0.4,3,1.2s1.1,1.9,1.1,3.4v1h-5.8c0.1,0.6,0.3,1.1,0.7,1.4c0.4,0.4,0.9,0.5,1.5,0.5
		c0.9,0,1.7-0.3,2.2-1l1.2,1.3c-0.4,0.5-0.9,0.9-1.5,1.2C131.3,178.9,130.6,179,129.8,179z M129.5,171.5c-0.5,0-0.9,0.2-1.2,0.5
		c-0.3,0.3-0.5,0.8-0.6,1.4h3.4v-0.2c0-0.5-0.2-1-0.4-1.3C130.4,171.7,130,171.5,129.5,171.5z"/>
        <path class="st0" d="M140.1,172c-0.3,0-0.6-0.1-0.9-0.1c-0.9,0-1.5,0.3-1.8,0.9v6H135v-9.2h2.3l0.1,1.1c0.5-0.8,1.2-1.3,2-1.3
		c0.3,0,0.5,0,0.8,0.1L140.1,172z"/>
        <path class="st0" d="M143.9,178.9h-2.5v-13h2.5V178.9z"/>
        <path class="st0" d="M151.2,178.9c-0.1-0.2-0.2-0.5-0.2-0.8c-0.6,0.7-1.4,1-2.3,1c-0.9,0-1.6-0.3-2.2-0.8s-0.9-1.2-0.9-2
		c0-1,0.4-1.7,1.1-2.2c0.7-0.5,1.8-0.8,3.1-0.8h1.1v-0.5c0-0.4-0.1-0.8-0.3-1c-0.2-0.3-0.6-0.4-1-0.4c-0.4,0-0.7,0.1-1,0.3
		c-0.2,0.2-0.4,0.5-0.4,0.8h-2.4c0-0.5,0.2-1,0.5-1.5s0.8-0.8,1.4-1.1c0.6-0.3,1.3-0.4,2-0.4c1.1,0,2,0.3,2.7,0.9s1,1.4,1,2.4v4
		c0,0.9,0.1,1.5,0.4,2v0.1H151.2z M149.2,177.2c0.4,0,0.7-0.1,1-0.2c0.3-0.2,0.5-0.4,0.7-0.6v-1.6h-0.9c-1.2,0-1.9,0.4-2,1.3l0,0.1
		c0,0.3,0.1,0.6,0.3,0.8C148.5,177.1,148.8,177.2,149.2,177.2z"/>
        <path class="st0" d="M157.4,169.7l0.1,1.1c0.7-0.8,1.5-1.2,2.6-1.2c1,0,1.7,0.3,2.2,0.9c0.5,0.6,0.7,1.4,0.7,2.6v5.9h-2.4V173
		c0-0.5-0.1-0.9-0.3-1.1c-0.2-0.2-0.6-0.4-1.1-0.4c-0.7,0-1.2,0.3-1.5,0.9v6.5h-2.4v-9.2H157.4z"/>
        <path class="st0" d="M164.5,174.2c0-1.4,0.3-2.6,1-3.4s1.5-1.3,2.6-1.3c0.9,0,1.6,0.3,2.2,1v-4.7h2.5v13h-2.2l-0.1-1
		c-0.6,0.8-1.4,1.1-2.4,1.1c-1.1,0-1.9-0.4-2.6-1.3C164.8,176.9,164.5,175.7,164.5,174.2z M166.9,174.4c0,0.9,0.1,1.5,0.4,2
		c0.3,0.5,0.7,0.7,1.3,0.7c0.8,0,1.3-0.3,1.6-1v-3.6c-0.3-0.6-0.8-1-1.6-1C167.5,171.5,166.9,172.5,166.9,174.4z"/>
        <path class="st0" d="M179.6,176.3c0-0.3-0.1-0.5-0.4-0.7c-0.3-0.2-0.8-0.3-1.4-0.5c-2.2-0.5-3.3-1.4-3.3-2.8c0-0.8,0.3-1.5,1-2
		c0.7-0.5,1.6-0.8,2.6-0.8c1.2,0,2.1,0.3,2.8,0.8c0.7,0.5,1,1.3,1,2.1h-2.4c0-0.3-0.1-0.6-0.3-0.9c-0.2-0.2-0.6-0.3-1.1-0.3
		c-0.4,0-0.7,0.1-1,0.3c-0.2,0.2-0.3,0.4-0.3,0.7c0,0.3,0.1,0.5,0.4,0.7c0.3,0.2,0.7,0.3,1.3,0.4c0.6,0.1,1.1,0.3,1.5,0.4
		c1.3,0.5,1.9,1.3,1.9,2.5c0,0.8-0.4,1.5-1.1,2c-0.7,0.5-1.6,0.8-2.8,0.8c-0.8,0-1.4-0.1-2-0.4s-1.1-0.6-1.4-1.1
		c-0.3-0.5-0.5-1-0.5-1.5h2.3c0,0.4,0.2,0.8,0.5,1c0.3,0.2,0.7,0.3,1.2,0.3c0.5,0,0.8-0.1,1.1-0.3
		C179.5,176.9,179.6,176.6,179.6,176.3z"/>
        <path class="st0" d="M196.2,178.9h-8.4v-1.7l4-4.2c0.5-0.6,1-1.1,1.2-1.6c0.3-0.4,0.4-0.9,0.4-1.3c0-0.5-0.1-1-0.4-1.3
		c-0.3-0.3-0.7-0.5-1.2-0.5c-0.6,0-1,0.2-1.3,0.6c-0.3,0.4-0.5,0.9-0.5,1.5h-2.5c0-0.8,0.2-1.4,0.5-2.1s0.9-1.1,1.5-1.5
		s1.4-0.5,2.2-0.5c1.3,0,2.3,0.3,3,0.9c0.7,0.6,1.1,1.5,1.1,2.6c0,0.6-0.2,1.2-0.5,1.9s-0.9,1.4-1.6,2.2l-2.8,3h5.3V178.9z"/>
        <path class="st0" d="M206,173.8c0,1.7-0.4,3-1.1,3.9c-0.7,0.9-1.7,1.4-3.1,1.4c-1.3,0-2.4-0.4-3.1-1.3c-0.7-0.9-1.1-2.2-1.1-3.8
		v-2.3c0-1.7,0.4-3,1.1-3.9s1.7-1.3,3.1-1.3c1.3,0,2.4,0.4,3.1,1.3c0.7,0.9,1.1,2.2,1.1,3.8V173.8z M203.6,171.3
		c0-1-0.1-1.8-0.4-2.2c-0.3-0.5-0.7-0.7-1.3-0.7c-0.6,0-1,0.2-1.3,0.7s-0.4,1.1-0.4,2.1v3c0,1,0.1,1.8,0.4,2.2
		c0.3,0.5,0.7,0.7,1.3,0.7c0.6,0,1-0.2,1.3-0.7s0.4-1.2,0.4-2.2V171.3z"/>
        <path class="st0" d="M216.1,178.9h-8.4v-1.7l4-4.2c0.5-0.6,1-1.1,1.2-1.6c0.3-0.4,0.4-0.9,0.4-1.3c0-0.5-0.1-1-0.4-1.3
		c-0.3-0.3-0.7-0.5-1.2-0.5c-0.6,0-1,0.2-1.3,0.6c-0.3,0.4-0.5,0.9-0.5,1.5h-2.5c0-0.8,0.2-1.4,0.5-2.1s0.9-1.1,1.5-1.5
		s1.4-0.5,2.2-0.5c1.3,0,2.3,0.3,3,0.9c0.7,0.6,1.1,1.5,1.1,2.6c0,0.6-0.2,1.2-0.5,1.9s-0.9,1.4-1.6,2.2l-2.8,3h5.3V178.9z"/>
        <path class="st0" d="M223.6,178.9h-2.4v-9.4l-2.9,0.9v-2l5.1-1.8h0.3V178.9z"/>
</g>
</svg>
